<?xml version="1.0" encoding="UTF-8"?>
<svg id="Layer_2" data-name="Layer 2" xmlns="http://www.w3.org/2000/svg" viewBox="0 0 3825 481.14">
  <defs>
    <style>
      .cls-1 {
        fill: #035bd7;
      }

      .cls-2 {
        fill: #fff;
      }

      .cls-3 {
        fill: #00b3fd;
      }
    </style>
  </defs>
  <g id="Layer_1-2" data-name="Layer 1">
    <g>
      <g>
        <path class="cls-2" d="M3798.73,56.32h-289.99c-25.9,0-49.72,11.73-65.71,30.67l1.38-5.2,6.74-25.47h-655.32l-4.04,15.01-27.37,101.65-41.11-103.85-5.07-12.81h-140.27l-5.81,21.7-6.36,23.77-37.35,139.62c0-.28.02-.56.02-.84,0-62.04-23.55-120.94-66.31-165.85l-2.83-2.98-12.53-11.84-3.13-2.66c-43.4-36.92-98.72-57.25-155.76-57.25s-112.36,20.33-155.76,57.25l-15.66,14.5s-27.95,32.79-37.49,49.44c3.48-15.5.04-31.49-9.73-44.14-10.16-13.17-25.53-20.72-42.16-20.72h-665.59l-4.39,14.34-6.34,20.69c-1.84-4.95-4.35-9.69-7.67-14.02-10.21-13.34-25.71-21-42.51-21h-598.44l-4.14,14.82-32.07,114.83h-69.68l29.03-103.92,7.19-25.73H165.63c-38.73,0-72.89,26.09-83.08,63.45l-2.47,9.06c-9.54,34.95-20.35,74.57-23.12,86.81-6.94,30.63,9.05,56.43,39.78,64.21,7.89,2,16.62,2.99,26.71,3.04,24.31.12,48.37.13,66.62.13h29.45s29.43-.02,29.43-.02h7.07c1.54,0,2.98,0,4.42-.02,1.36,0,2.72-.02,4.08-.02h.15c-2.37,8.52-4.77,17.03-7.17,25.54-1.83,6.49-3.66,12.98-5.48,19.48l-43.38.03c-25.32.02-50.5.04-75.73.04-27.74,0-55.55-.02-83.69-.09-14.85,0-24.82,7.54-28.97,21.81-1.07,3.7-4.19,15.39-7.48,27.78-2.33,8.74-4.59,17.27-5.84,21.8l-6.93,25.29,26.22.34c.91.01,5.96.02,13.78.02,13.66,0,35.98-.01,59.51-.03,25.76-.02,52.98-.03,71.91-.04h.81c13.51,0,27.03.01,40.54.02,13.53.01,27.05.02,40.58.02,22.21,0,40.39-.03,57.22-.11,29.43-.13,52.8-9.72,69.29-28.03l-.68,2.42-7.19,25.73h157.5l4.14-14.82,35.56-127.32h69.68l-32.51,116.41-7.19,25.73h447.3l4.14-14.82,27.73-99.28h154.65c40.43,0,76.04-27.26,86.6-66.29l25.05-92.61h100.89l-69.07,247.27-7.19,25.73h157.5l4.14-14.82,72.12-258.18h95.81l-69.07,247.27-7.19,25.73h157.5l4.14-14.82,26.3-94.14h16.76l24.81,93.87,3.99,15.1h153.03l-6.73-25.46-22.64-85.65c31.31-7.07,56.9-31.05,65.31-63.09l2.29-8.71c.38,61.48,23.87,119.79,66.28,164.33l15.37,14.81,3.13,2.66c37.85,32.19,83.93,51.63,133.27,56.2,7.39.7,14.97,1.05,22.49,1.05s15.1-.35,22.52-1.05c49.31-4.57,95.4-24,133.25-56.19l18.49-17.47c13.45-14.13,24.99-29.64,34.51-46.2l-10.45,39.07-6.83,25.52h152.99l3.98-15.12,26.68-101.45,40.62,102.93,5.07,12.83h129.03l-.06.2h150.23l4.14-14.82,7.55-27.03c1.96,6.71,5.14,13.11,9.53,18.89,11.08,14.59,27.94,22.97,46.26,22.97h297.71l.06-.23,16.49.22c.92.01,6.01.02,13.89.02,13.68,0,35.96-.01,59.44-.03,25.63-.02,52.69-.03,71.53-.04h.81c13.48,0,26.95.01,40.43.02,13.49.01,26.97.02,40.46.02,22.18,0,40.32-.03,57.11-.11,45.66-.2,76.81-23.12,90.08-66.28,5.5-17.87,18.44-63.4,25.05-93.15,5.01-18.84,1.11-38.5-10.72-54.03-11.95-15.67-30.1-24.66-49.81-24.66h-.74c-26.09-.24-51.75-.27-71.2-.27-10.97,0-21.94.01-32.9.02-10.95.01-21.91.02-32.86.02h-5.54c1.48-5.42,3.04-10.9,4.55-16.23,1.64-5.77,3.32-11.67,4.94-17.63,19.44.05,45.93.07,78.95.07,53.55,0,108.58-.07,125.27-.09,12.03-.02,22.71-8.11,25.97-19.69,3.36-11.95,11.45-40.79,13.98-50.44l6.66-25.42h-26.27ZM310.48,404.6c-19.04.08-38.08.11-57.13.11-27.04,0-54.08-.05-81.11-.05h-.81c-36.24,0-102.81.07-131.43.07-7.67,0-12.62,0-13.52-.02,2.92-10.65,11.46-43.2,13.23-49.28,1.64-5.63,3.84-7.19,9.37-7.19h.07c28.15.07,55.98.09,83.74.09,41.68,0,83.21-.05,125.48-.07h.07c1.67,0,3.02.03,4.14.03,5.65,0,5-.66,7.25-8.74,5.06-18.17,10.25-36.3,15.29-54.47.74-2.65,1.19-5.44,1.32-8.19.42-8.73-3.72-13.44-12.52-13.96-3.13-.19-6.27-.23-9.41-.23-2.8,0-5.6.03-8.4.03h-.09c-2.36,0-4.72,0-7.08,0-19.63,0-39.26.02-58.89.02-22.17,0-44.35-.03-66.52-.13-7.29-.04-14.79-.64-21.83-2.42-19.82-5.01-29.52-20.01-24.98-40.07,2.91-12.86,15.44-58.58,25.38-95.01,7.81-28.65,33.82-48.51,63.52-48.51,92.92,0,208.58,0,290.69,0-2.51,9.56-10.64,38.58-13.92,50.21-.82,2.91-3.47,4.91-6.49,4.91-16.73.02-71.88.09-125.55.09-32.62,0-64.69-.02-87.26-.1-.03,0-.06,0-.09,0-5.59,0-7.93,1.7-9.31,7.07-3.95,15.38-8.62,30.57-12.71,45.92-4.19,15.71.44,21.62,16.65,21.63,3.23,0,6.44,0,9.67,0,21.95,0,43.91-.04,65.86-.04,23.76,0,47.52.05,71.28.27h.84c28.03,0,48.36,26.68,40.93,53.7-6.28,28.38-18.99,73.39-24.79,92.25-10.74,34.93-34.19,51.92-70.96,52.09ZM415.19,210.98c-11.97-15.7-30.15-24.7-49.89-24.7h-.75c-26.16-.24-51.88-.27-71.37-.27-10.98,0-21.97.01-32.95.02-10.97.01-21.94.02-32.91.02h-5.68c1.49-5.45,3.06-10.96,4.58-16.33,1.65-5.79,3.34-11.73,4.96-17.71,19.5.05,46.07.07,79.18.07,53.68,0,108.84-.07,125.58-.09,4.79,0,9.34-1.33,13.32-3.61l-23.45,83.96c-2.1-7.6-5.65-14.85-10.62-21.37ZM514.11,404.72h-115.39l91.65-328.12h115.39l-30.55,109.38h-.39l-4.07,14.95-11.26,41.33-45.38,162.47ZM741.29,404.72h-115.39l39.7-142.14h-90.63l4.07-14.93,11.56-41.4h75.61c8.94,0,16.79-5.95,19.19-14.57l32.15-115.09h115.39l-91.65,328.12ZM881.76,404.72h-108.38l91.65-328.12h108.38l-91.65,328.12ZM1300.04,239.31c-8.19,30.28-35.66,51.3-67.03,51.3h-150.55l14.74-54.49,79.63-.09c5.84,0,10.96-3.93,12.48-9.57l21.9-80.96c1.94-7.18-3.47-14.25-10.91-14.25h-.01l-92.83.08-76.36,273.39h-115.39l91.65-328.12h293.24c21.9,0,37.83,20.8,32.11,41.95l-32.67,120.76ZM1104.91,215.84l17.94-64.24,65.72-.06-17.37,64.22-66.29.08ZM2395.11,339.11l-6.96,7.57-7.91,6.5c-15.26,12.52-32.74,21.73-51.44,27.19v-78.7h29.15v-60.25h-7.96c3.16-7.77,4.83-16.18,4.83-24.89,0-3.74-.32-7.48-.94-11.11-.98-5.76-2.75-11.34-5.2-16.62l5.5-5.82,13.56-14.34,15.72-16.63h0s10.57-11.18,10.57-11.18l1.1,1.2c24.76,26.92,38.4,61.92,38.4,98.54s-13.64,71.61-38.41,98.54ZM2287.9,150.25c-12.15,0-23.92,3.27-34.14,9.28-6.18,2.54-12.02,5.74-17.41,9.53l-9.91-10.48c17.88-13.02,39.06-19.94,61.46-19.94s43.57,6.93,61.46,19.94l-9.91,10.48c-5.38-3.78-11.21-6.98-17.39-9.52-10.23-6.01-22-9.29-34.16-9.29ZM2187.65,346.68l-6.97-7.57c-24.77-26.93-38.41-61.92-38.41-98.54s13.64-71.62,38.4-98.54l1.1-1.2,10.57,11.18h0s15.72,16.63,15.72,16.63l13.56,14.34,5.51,5.82c-2.46,5.28-4.23,10.88-5.21,16.67-.62,3.58-.93,7.32-.93,11.06,0,8.71,1.67,17.12,4.83,24.89h-7.96v60.25h29.15v78.7c-18.7-5.46-36.18-14.67-51.44-27.19l-7.91-6.5ZM2365.07,138.41c-22.41-16.58-49.09-25.34-77.17-25.34s-54.76,8.76-77.17,25.34l-1.97,1.46-12.09-12.79c25.75-20.72,58.07-32.13,91.22-32.13s65.48,11.41,91.22,32.13l-12.09,12.79-1.97-1.46ZM2287.9,20.28c54.4,0,104.19,19.72,142.63,52.42l-33.01,34.92-1.42-1.12c-30.56-24.12-68.99-37.41-108.2-37.41s-77.64,13.28-108.2,37.41l-1.42,1.12-33.01-34.92c38.43-32.69,88.23-52.42,142.63-52.42ZM1587.66,131.72l-76.26,273h-115.39l76.26-273h-112.65l16.89-55.12h330.64l-16.9,55.12h-102.59ZM2025.46,245.65c-7.75,29.52-34.43,50.1-64.95,50.1h-6.51l28.8,108.97h-111.08l-28.8-108.97h-29.99l14.46-55.09h88.34l23.83-90.79c2.41-9.18-4.51-18.15-14-18.15h-84.58l-76.26,273h-115.39l91.65-328.12h286.12c21.61,0,37.38,20.44,31.89,41.34l-33.52,127.71ZM1837.26,220.39l19.1-68.38h61.68l-17.95,68.38h-62.83ZM2067.6,240.57c0-58.87,23.09-112.35,60.72-151.87l37.42,39.6c-27.17,29.54-43.76,68.96-43.76,112.27s16.59,82.73,43.77,112.27l-37.43,39.6c-37.63-39.52-60.72-92.99-60.72-151.87ZM2308.52,459.9c-6.79.64-13.67.96-20.62.96s-13.83-.32-20.62-.96c-46.32-4.29-88.48-22.94-122.01-51.45l37.42-39.6c23.63,19.4,52.7,32.4,84.58,36.35v-123.8h-29.15v-19.69h28.42c2.15,0,2.78-2.89.84-3.83-.04-.02-.07-.04-.11-.05-2.63-1.28-5.13-2.79-7.45-4.53-11.28-8.4-18.58-21.73-18.58-36.76,0-2.61.22-5.18.65-7.67,1.45-8.54,5.27-16.27,10.8-22.52,2.95-3.35,6.41-6.24,10.22-8.63,7.89-3.03,16.31-4.63,24.98-4.63s17.09,1.6,24.98,4.63c3.81,2.39,7.27,5.28,10.22,8.63,5.52,6.25,9.35,13.98,10.8,22.52.43,2.49.65,5.05.65,7.67,0,15.02-7.3,28.35-18.58,36.76-2.32,1.74-4.82,3.25-7.45,4.53-.04.02-.07.04-.11.05-1.94.94-1.31,3.83.84,3.83h28.42v19.69h-29.15v123.8c31.88-3.95,60.95-16.95,84.58-36.35l37.42,39.6c-33.52,28.52-75.69,47.16-122.01,51.45ZM2447.47,392.44l-37.43-39.6c27.17-29.54,43.77-68.97,43.77-112.27s-16.59-82.73-43.76-112.27l37.42-39.6c37.63,39.52,60.72,92.99,60.72,151.87s-23.09,112.35-60.72,151.87ZM3440,279.41c7.87,1.99,16.59,2.98,26.66,3.03,24.22.12,48.2.13,66.39.13h29.42s29.4-.02,29.4-.02h7.06c1.54,0,2.97,0,4.41-.02,1.35,0,2.71-.02,4.06-.02h.08c-2.36,8.47-4.75,16.93-7.13,25.4-1.83,6.47-3.65,12.94-5.46,19.42l-43.38.03c-25.2.02-50.26.04-75.38.04-27.69,0-55.43-.02-83.51-.09-6.06,0-11.26,1.32-15.63,3.78l.92-3.59h-214.78l49.05-175.59h204.85c-7.52,27.64-14.58,53.86-16.74,63.4-6.92,30.58,9.04,56.35,39.72,64.11ZM2616.74,404.54h-110.94l78.88-294.82,65.77,166.65-33.71,128.17ZM2722.52,403.73l-50.77-128.63,1.03-3.93-2.48-6.21-66.08-165.45-9.15-22.91h109.39l63.64,160.75,43.28-160.75h110.11l-86.92,327.13h-112.05ZM2972.53,403.93h-108.12l91.43-327.33h108.12l-91.43,327.33ZM3120.71,403.93h-65.31c-25.02,0-43.13-23.87-36.4-47.96l78.03-279.36h327.78l-14.57,55.02h-203.81c-5.71,0-10.71,3.8-12.25,9.29l-53.64,192.03c-2.08,7.45,3.52,14.83,11.25,14.83h199.97l-14.39,56.16h-216.67ZM3784.84,126.69c-.82,2.9-3.46,4.89-6.47,4.9-16.69.02-71.71.09-125.25.09-32.54,0-64.53-.02-87.04-.1-.03,0-.06,0-.09,0-5.57,0-7.91,1.7-9.29,7.05-3.94,15.34-8.6,30.5-12.68,45.8-4.18,15.67.44,21.56,16.61,21.57,3.2,0,6.39,0,9.58,0,21.92,0,43.84-.04,65.77-.04,23.7,0,47.41.05,71.1.27h.84c27.96,0,48.24,26.62,40.83,53.57-6.26,28.31-18.94,73.21-24.73,92.03-10.72,34.85-34.11,51.8-70.79,51.96-19.01.08-38.01.11-57.02.11-26.96,0-53.92-.05-80.89-.05h-.81c-36.09,0-102.35.07-130.97.07-7.73,0-12.72,0-13.62-.02,2.91-10.62,11.44-43.1,13.2-49.16,1.63-5.62,3.83-7.17,9.35-7.17h.07c28.09.07,55.86.09,83.56.09,41.57,0,83-.05,125.16-.07h.07c1.66,0,3.02.03,4.12.03,5.64,0,4.99-.66,7.23-8.72,5.04-18.12,10.23-36.21,15.25-54.34.73-2.65,1.18-5.43,1.32-8.17.42-8.71-3.71-13.41-12.49-13.93-3.12-.19-6.25-.23-9.38-.23-2.79,0-5.58.03-8.37.03h-.09c-2.36,0-4.7,0-7.06,0-19.6,0-39.21.02-58.81.02-22.1,0-44.2-.03-66.29-.13-7.28-.04-14.76-.64-21.78-2.41-19.77-5-29.45-19.96-24.91-39.97,2.9-12.82,15.4-58.43,25.32-94.78,7.8-28.58,33.74-48.39,63.37-48.39,92.7,0,208.07,0,289.99,0-2.5,9.54-10.62,38.49-13.88,50.09Z"/>
        <path class="cls-2" d="M2287.9,198.82c-6.5,0-12.21,3.41-15.35,8.54-1.65,2.68-2.6,5.82-2.6,9.18,0,6.87,3.96,12.82,9.74,15.75,2.46,1.26,5.25,1.96,8.22,1.96s5.76-.71,8.22-1.96c5.78-2.94,9.74-8.89,9.74-15.75,0-3.37-.95-6.5-2.6-9.18-3.15-5.12-8.85-8.54-15.35-8.54Z"/>
      </g>
      <polygon class="cls-3" points="881.76 404.72 773.38 404.72 865.03 76.6 973.41 76.6 881.76 404.72"/>
      <path class="cls-3" d="M165.63,76.6c-29.7,0-55.7,19.86-63.52,48.51-9.94,36.44-22.47,82.16-25.38,95.01-4.54,20.06,5.16,35.06,24.98,40.07,7.04,1.78,14.54,2.38,21.83,2.42,44.16.21,88.32.1,132.49.11,5.97,0,11.95-.16,17.9.19,8.8.52,12.94,5.23,12.52,13.96-.13,2.75-.58,5.54-1.32,8.19-5.04,18.17-10.23,36.3-15.29,54.47-2.7,9.69-1.23,8.71-11.45,8.72-70.42.03-138.8.15-209.22-.02-5.59-.01-7.8,1.53-9.45,7.19-1.77,6.08-10.32,38.64-13.23,49.28,4.24.06,98.99-.05,144.94-.05,46.35,0,92.7.14,139.05-.06,36.77-.16,60.22-17.15,70.96-52.08,5.8-18.87,18.52-63.87,24.79-92.25h0c7.43-27.02-12.9-53.7-40.93-53.7h-.84c-48.93-.45-97.87-.19-146.81-.23-16.21-.01-20.84-5.92-16.65-21.63,4.09-15.35,8.76-30.54,12.71-45.92,1.39-5.4,3.75-7.09,9.4-7.07,59.71.19,185.91.04,212.81,0,3.02,0,5.67-2,6.49-4.91,3.27-11.63,11.41-40.65,13.92-50.21-82.12,0-197.77,0-290.69,0Z"/>
      <g>
        <polygon class="cls-3" points="490.37 76.6 398.72 404.72 514.11 404.72 605.76 76.6 490.37 76.6"/>
        <path class="cls-3" d="M717.55,76.6l-32.15,115.09c-2.41,8.61-10.25,14.57-19.19,14.57h-75.9l-15.35,56.33h90.63l-39.7,142.14h115.39l91.65-328.12h-115.39Z"/>
      </g>
      <path class="cls-3" d="M1300.59,76.6h-293.24l-91.65,328.12h115.39l76.36-273.39,92.83-.08c7.45,0,12.86,7.06,10.92,14.25l-21.9,80.96c-1.53,5.64-6.64,9.56-12.48,9.57l-79.63.09-14.74,54.49h150.55c31.37,0,58.84-21.03,67.03-51.3l32.67-120.76c5.72-21.14-10.2-41.95-32.11-41.95Z"/>
      <polygon class="cls-1" points="1707.14 76.6 1603.05 76.6 1487.66 76.6 1376.51 76.6 1359.61 131.72 1472.26 131.72 1396.01 404.72 1511.4 404.72 1587.66 131.72 1690.25 131.72 1707.14 76.6"/>
      <path class="cls-1" d="M2027.1,76.6h-286.12l-91.65,328.12h115.39l76.26-273h84.58c9.49,0,16.41,8.98,14,18.15l-23.83,90.79h-88.34l-14.46,55.09h29.99l28.8,108.97h111.08l-28.8-108.97h6.51c30.52,0,57.2-20.58,64.95-50.1l33.52-127.71c5.49-20.9-10.28-41.34-31.89-41.34Z"/>
      <polygon class="cls-1" points="2972.53 403.93 2864.41 403.93 2955.84 76.6 3063.96 76.6 2972.53 403.93"/>
      <path class="cls-1" d="M3508.74,76.6c-29.63,0-55.57,19.81-63.37,48.39-9.91,36.35-22.41,81.96-25.32,94.78-4.53,20.01,5.14,34.97,24.91,39.97,7.02,1.78,14.5,2.38,21.78,2.41,44.05.21,88.11.1,132.17.11,5.95,0,11.92-.16,17.85.19,8.78.52,12.9,5.22,12.49,13.93-.13,2.74-.58,5.53-1.32,8.17-5.03,18.13-10.21,36.22-15.25,54.34-2.69,9.66-1.23,8.69-11.42,8.69-70.25.03-138.46.15-208.71-.02-5.57-.01-7.78,1.53-9.42,7.17-1.76,6.07-10.29,38.54-13.2,49.16,4.23.06,98.75-.05,144.59-.05,46.24,0,92.48.14,138.71-.06,36.68-.16,60.07-17.11,70.79-51.96,5.79-18.82,18.47-63.72,24.73-92.03h0c7.41-26.96-12.87-53.57-40.83-53.57h-.84c-48.81-.45-97.63-.19-146.45-.23-16.17-.01-20.79-5.9-16.61-21.58,4.08-15.31,8.74-30.46,12.68-45.8,1.38-5.38,3.74-7.07,9.38-7.05,59.56.19,185.46.04,212.29,0,3.01,0,5.66-1.99,6.47-4.9,3.26-11.61,11.38-40.55,13.88-50.09-81.92,0-197.29,0-289.99,0Z"/>
      <g>
        <polygon class="cls-1" points="2811.37 76.6 2768.1 237.35 2704.46 76.6 2593.4 76.6 2722.52 403.73 2834.57 403.73 2921.49 76.6 2811.37 76.6"/>
        <polygon class="cls-1" points="2505.8 404.54 2616.74 404.54 2651.47 272.48 2585.39 107.03 2505.8 404.54"/>
      </g>
      <path class="cls-1" d="M3410.24,131.62l14.57-55.02h-327.78l-78.03,279.36c-6.73,24.1,11.38,47.96,36.4,47.96h281.98l14.39-56.16h-199.97c-7.73,0-13.34-7.38-11.25-14.83l53.64-192.03c1.53-5.49,6.54-9.29,12.25-9.29h203.81Z"/>
      <g>
        <path class="cls-1" d="M2308.52,405.2v-123.8h29.15v-19.69h-28.42c-2.15,0-2.78-2.89-.84-3.83.04-.02.07-.04.11-.05,2.63-1.28,5.13-2.79,7.45-4.53,11.28-8.4,18.58-21.73,18.58-36.76,0-2.61-.22-5.18-.65-7.67-1.45-8.54-5.27-16.27-10.8-22.52-8.55-9.7-21.14-15.83-35.2-15.83s-26.66,6.13-35.2,15.83c-5.52,6.25-9.35,13.98-10.8,22.52-.43,2.49-.65,5.05-.65,7.67,0,15.02,7.3,28.35,18.58,36.76,2.32,1.74,4.82,3.25,7.45,4.53.04.02.07.04.11.05,1.94.94,1.31,3.83-.84,3.83h-28.42v19.69h29.15v123.8c-31.88-3.95-60.95-16.95-84.58-36.35l-37.42,39.6c33.52,28.52,75.69,47.16,122.01,51.45,6.79.64,13.67.96,20.62.96s13.83-.32,20.62-.96c46.32-4.29,88.48-22.94,122.01-51.45l-37.42-39.6c-23.63,19.4-52.7,32.4-84.58,36.35ZM2269.94,216.54c0-3.37.95-6.5,2.6-9.18,3.15-5.12,8.85-8.54,15.35-8.54s12.21,3.41,15.35,8.54c1.65,2.68,2.6,5.82,2.6,9.18,0,6.87-3.96,12.82-9.74,15.76-2.46,1.26-5.25,1.96-8.22,1.96s-5.76-.71-8.22-1.96c-5.78-2.94-9.74-8.89-9.74-15.76Z"/>
        <path class="cls-3" d="M2447.47,88.71l-37.42,39.6c27.17,29.54,43.76,68.96,43.76,112.27s-16.59,82.73-43.77,112.27l37.43,39.6c37.63-39.52,60.72-92.99,60.72-151.87s-23.09-112.35-60.72-151.87Z"/>
        <path class="cls-3" d="M2121.99,240.57c0-43.31,16.58-82.73,43.76-112.27l-37.42-39.6c-37.63,39.52-60.72,92.99-60.72,151.87s23.09,112.35,60.72,151.87l37.43-39.6c-27.17-29.54-43.77-68.97-43.77-112.27Z"/>
        <path class="cls-3" d="M2222.79,154.71l13.56,14.34c14.54-10.22,32.33-16.23,51.55-16.23s37,6.01,51.55,16.23l13.56-14.34c-18.14-13.42-40.68-21.36-65.11-21.36s-46.97,7.94-65.11,21.36Z"/>
        <path class="cls-3" d="M2383.53,122.41c-26.21-20.69-59.46-33.05-95.64-33.05s-69.43,12.36-95.64,33.05l20.11,21.28c20.9-15.89,47.09-25.33,75.52-25.33s54.62,9.44,75.52,25.33l20.11-21.28Z"/>
        <path class="cls-3" d="M2287.9,74.67c39.94,0,76.57,14.11,105.2,37.61l37.42-39.59c-38.43-32.69-88.23-52.42-142.63-52.42s-104.19,19.72-142.63,52.42l37.42,39.59c28.63-23.51,65.26-37.61,105.2-37.61Z"/>
      </g>
    </g>
  </g>
</svg>