<?xml version="1.0" encoding="UTF-8"?>
<svg id="Layer_2" data-name="Layer 2" xmlns="http://www.w3.org/2000/svg" viewBox="0 0 3318.75 1049.07">
  <defs>
    
  </defs>
  <g id="Layer_1-2" data-name="Layer 1">
    <g>
      <path class="cls-2" d="M2897.95,478.09c-37.96,0-72.64,18.64-93.98,48.2l3.09-11.68,9.67-36.51-886.36.24-40.16,149.17-59.05-149.17h-188.62l-52.46,196.06c-9.9-65.65-39.6-126.7-86.09-175.52,0,0-34.15-34.7-52.03-45.61l31.77-113.75h201.49c54.24,0,102.02-36.57,116.18-88.93l42.95-158.77c5.97-22.06,1.42-45.11-12.46-63.26C1817.99,10.41,1796.92,0,1774.07,0h-400.4s-38.3,0-38.3,0h-164.56s-29.56,0-29.56,0h-174.15l-5.94,21.25-41.8,149.63h-86.97l37.43-133.99L880.13,0h-205.49S636.97,0,636.97,0H253.85c-52.1,0-98.06,35.1-111.76,85.36l-3.28,12.02c-12.57,46.06-26.81,98.26-30.47,114.43-9.44,41.71,12.32,76.83,54.14,87.42,10.58,2.68,22.27,4.01,35.76,4.07,32.01.15,63.69.17,87.71.17,12.95,0,25.9,0,38.85-.01,12.94,0,25.88-.01,38.82-.01h9.36c2.03,0,3.93-.01,5.84-.02.82,0,1.64-.01,2.46-.01-2.85,10.22-5.73,20.43-8.61,30.64-2.26,8-4.51,15.99-6.75,23.99-18.65,0-37.14.02-55.57.04-33.3.02-66.41.05-99.58.05-41.81,0-76.87-.04-110.34-.12h-.04s-.13,0-.13,0c-20.27,0-34.57,10.81-40.27,30.44-1.43,4.9-5.54,20.37-9.89,36.74-3.11,11.7-6.05,22.75-7.67,28.65l-9.93,36.26,3.91.05-2.61,8.51-22.27,72.65-11.52,37.59h149.49l-90.2,322.92-10.3,36.89h212.45l5.94-21.25,94.57-338.56h129.14l-90.2,322.92-10.31,36.89h212.45l5.94-21.25,34.18-122.37h18.5l32.24,121.97,5.72,21.64h206.55l-9.65-36.5-29.22-110.56c33.46-8.29,61.8-31.01,77.14-62.05,7.8,70.5,38.26,136.34,87.76,188.33l2.66,2.79-.96,1.01,10.12,8.61,9.3,9.77.97-1.03,2.93,2.49c51.24,43.58,113.63,69.89,180.43,76.08,10.01.94,20.26,1.42,30.44,1.42s20.44-.48,30.48-1.42c66.76-6.19,129.15-32.49,180.39-76.08l2.93-2.49.97,1.03,9.29-9.76,10.14-8.62-.96-1.02,2.66-2.79c6.55-6.88,12.75-14.02,18.63-21.36l-1.77,6.6-9.79,36.58h206.86l5.7-21.68,33.48-127.3,51.11,129.51,7.26,18.4h175.55l-.07.26h203.22l5.94-21.25,12.74-45.6c2,12.64,7.09,24.76,15.13,35.37,15.07,19.85,38.01,31.24,62.93,31.24h395.11l.1-.39,28.06.37c.87.01,3.74.02,18.38.02,18.11,0,47.63-.02,78.71-.04,33.81-.02,69.48-.05,94.32-.05h1.11c17.8,0,35.61.02,53.41.03,17.82.02,35.64.03,53.46.03,29.24,0,53.2-.04,75.4-.14,61.42-.27,103.33-31.1,121.18-89.17,7.27-23.64,24.38-83.83,33.13-123.2,6.78-25.56,1.49-52.23-14.57-73.3-16.22-21.28-40.87-33.48-67.62-33.48h-.97c-34.49-.31-68.39-.35-94.07-.35-14.49,0-91.22.06-91.22.06,1.71-6.2,9.3-32.85,11.3-40.17,25.58.06,247.22,0,268.08-.02,16.91-.02,31.92-11.4,36.5-27.67,4.43-15.77,28.02-103.13,28.02-103.13h-420.8ZM1125.01,591.91l.2-.22,11.55,12.22h0s22.53,23.84,22.53,23.84l18.26,19.31,6.61,6.99c-3.11,6.93-5.39,14.23-6.67,21.78-.85,4.92-1.28,10.05-1.28,15.19,0,10.93,2.03,21.68,5.82,31.74h-10.03v84.66h39.25v101.81c-24.09-7.36-46.63-19.4-66.37-35.61l-10.56-8.67-9.29-10.1c-33.05-35.93-51.25-82.62-51.25-131.48s18.2-95.56,51.24-131.48ZM1401.85,864.97l-10.56,8.67c-19.74,16.2-42.27,28.25-66.37,35.61v-101.81h39.25v-84.66h-10.03c3.79-10.06,5.82-20.81,5.82-31.74,0-5.15-.44-10.29-1.3-15.27-1.27-7.51-3.55-14.79-6.66-21.7l6.61-6.99,18.26-19.31,22.53-23.84h0s11.55-12.23,11.55-12.23l.2.22c33.04,35.92,51.24,82.61,51.24,131.48s-18.2,95.55-51.25,131.48l-9.29,10.1ZM998.63,540.4c-1.73-12.23-6.6-23.94-14.43-34.08-4.78-6.2-10.42-11.45-16.67-15.72h71.59s-30.54,35.18-40.5,49.8ZM1388.55,29.07h385.53c28.8,0,49.73,27.35,42.21,55.15l-42.95,158.77c-10.77,39.81-46.88,67.45-88.12,67.45h-197.93l19.38-71.64,104.68-.12c7.68,0,14.4-5.16,16.41-12.58l28.79-106.44c2.55-9.45-4.56-18.74-14.34-18.74h-.01l-122.04.11-93.75,335.64c-42.09-23.2-89.8-37.42-140.52-40.06l102.66-367.55ZM1519.98,209.71l22.24-79.63,81.42-.07-21.53,79.6-82.12.1ZM1192.87,29.07h142.49l-103.11,369.13c-58.13,6.46-111.71,28.17-156.65,61.04-.8.41-1.61.8-2.41,1.21h-.82l120.49-431.39ZM921.5,199.95c11.78,0,22.12-7.85,25.29-19.2l42.37-151.68h152.08l-120.8,432.46h-152.08l52.33-187.34h-117.15l20.74-74.24h97.22ZM840.37,453.71l-6.81,24.38h-86.97l2.44-8.74,46.39-166.09h86.97l-42.02,150.44ZM689.75,29.07h152.08l-39.61,141.81h-2.96l-5.84,21.43-20.23,74.24-10,36.71h2.05l-44.21,158.27h-152.08L689.75,29.07ZM517.01,171.28h-.97c-34.49-.31-68.38-.35-94.07-.35-14.48,0-28.96.01-43.44.03-14.46.01-28.93.03-43.39.03h-4.39c1.71-6.21,3.49-12.45,5.23-18.55,2.01-7.08,4.07-14.31,6.07-21.62,25.58.06,59.95.09,102.53.09,71.12,0,144.7-.09,165.55-.12,8.64-.01,16.78-3,23.28-8.08l-32.84,117.56c-2.43-12.7-7.79-24.83-15.94-35.52-16.22-21.28-40.86-33.48-67.62-33.48ZM87.9,396.56c2.16-7.43,5.06-9.48,12.35-9.48.03,0,.06,0,.1,0,37.12.09,73.81.12,110.42.12,54.92,0,109.64-.07,165.33-.09.03,0,.06,0,.09,0,2.2,0,3.98.03,5.45.03,7.45,0,6.59-.88,9.56-11.52,6.66-23.95,13.51-47.84,20.15-71.79.97-3.5,1.56-7.18,1.74-10.8.55-11.5-4.91-17.71-16.5-18.4-4.13-.25-8.26-.3-12.4-.3-3.69,0-7.38.05-11.07.05h-.11c-3.13,0-6.24,0-9.37,0-25.89,0-51.78.03-77.67.03-29.19,0-58.38-.03-87.57-.17-9.61-.05-19.5-.84-28.77-3.19-26.12-6.61-38.9-26.37-32.92-52.81,3.84-16.94,20.35-77.2,33.45-125.22,10.3-37.76,44.58-63.93,83.72-63.93,122.47,0,274.9,0,383.13,0-3.3,12.61-14.03,50.85-18.34,66.18-1.08,3.83-4.57,6.46-8.55,6.47-22.05.03-94.76.12-165.51.12-42.97,0-85.23-.03-114.96-.13-.04,0-.08,0-.12,0-7.36,0-10.45,2.25-12.27,9.32-5.21,20.27-11.36,40.29-16.75,60.52-5.52,20.71.58,28.49,21.94,28.5,4.24,0,8.48,0,12.72,0,28.94,0,57.89-.06,86.83-.06,31.31,0,62.62.07,93.93.35h1.1c36.94,0,63.74,35.16,53.95,70.78-8.27,37.41-25.03,96.72-32.68,121.59-14.16,46.04-45.07,68.44-93.52,68.65-25.1.11-50.2.14-75.3.14-35.61,0-71.24-.06-106.85-.06h-1.11c-47.69,0-135.25.09-173.05.09-10.21,0-16.79,0-17.98-.02,3.84-14.03,15.11-56.94,17.44-64.95ZM542.79,447.15l-1.83,6.56-6.81,24.38h-30.08c15.22-7.23,28.18-17.57,38.72-30.94ZM475.09,579.81h-135.21l-100.5,359.81H87.29l100.5-359.81H39.32l22.27-72.65h435.77l-22.27,72.65ZM924.62,729.97c-10.21,38.91-45.38,66.04-85.61,66.04h-8.58l37.96,143.62h-146.41l-37.96-143.62h-39.52l19.06-72.61h116.43l31.41-119.65c3.18-12.1-5.95-23.93-18.46-23.93h-111.48l-100.5,359.81h-152.08l120.8-432.46h377.1c28.48,0,49.26,26.94,42.03,54.48l-44.18,168.32ZM679.66,694.32l23.86-85.44h76.47l-22.43,85.44h-77.9ZM1695.51,940.67h-146.57l103.22-385.81,86.91,220.2-43.55,165.61ZM1983.3,939.6h-148.04l-65.66-166.36,2.35-8.93-3.56-8.9-87.3-218.58-11.75-29.42h142.06l84.07,212.37,57.18-212.37h145.48l-114.84,432.2ZM2172.11,939.86h-142.85l120.8-432.46h142.85l-120.8,432.46ZM2663.45,939.62h-372.54c-33.05,0-56.99-31.53-48.1-63.37l103.1-369.09h433.05l-19.25,72.69h-269.27c-7.54,0-14.15,5.02-16.18,12.28l-70.86,253.7c-2.75,9.84,4.65,19.59,14.87,19.59h264.2l-19.01,74.19ZM2682.46,836.35h-246.23l63.53-227.43h274.03c-9.65,35.48-18.57,68.66-21.35,80.98-9.44,41.7,12.32,76.83,54.14,87.41,10.58,2.68,22.28,4.01,35.77,4.07,32.03.15,182.23.12,183.05.11-2.85,10.23-13.13,46.64-15.37,54.64-18.6,0-265.53-.04-265.53-.04l-62.02.26ZM3262.74,573.34c-1.08,3.83-4.57,6.46-8.55,6.47-22.05.03-94.75.12-165.5.12-42.97,0-85.24-.03-114.97-.13-.04,0-.08,0-.12,0-7.36,0-10.45,2.25-12.27,9.32-5.21,20.27-11.36,40.29-16.75,60.52-5.52,20.71.58,28.49,21.94,28.5,4.23,0,8.45,0,12.69,0,28.95,0,57.92-.06,86.87-.06,31.31,0,62.62.07,93.93.35h1.1c36.94,0,63.74,35.16,53.95,70.78-8.27,37.41-25.03,96.72-32.68,121.59-14.16,46.04-45.07,68.44-93.52,68.65-25.09.11-50.18.14-75.28.14-35.63,0-71.25-.06-106.88-.06h-1.11c-47.68,0-135.21.09-173.03.09-10.22,0-16.81,0-18-.02,3.84-14.03,15.11-56.94,17.44-64.95,2.16-7.43,5.06-9.48,12.35-9.48.03,0,.07,0,.1,0,37.13.09,73.82.12,110.44.12,54.91,0,109.63-.07,165.31-.09h.09c2.2,0,3.98.03,5.45.03,7.45,0,6.59-.88,9.56-11.52,6.66-23.95,13.51-47.84,20.15-71.79.97-3.5,1.57-7.18,1.74-10.8.55-11.5-4.91-17.71-16.5-18.4-4.12-.24-8.26-.3-12.4-.3-3.69,0-7.39.05-11.08.05h-.11c-3.13,0-6.25,0-9.38,0-25.87,0-51.75.03-77.61.03-29.21,0-58.41-.03-87.62-.17-9.61-.05-19.5-.84-28.78-3.19-26.12-6.61-38.9-26.37-32.92-52.81,3.84-16.94,20.35-77.2,33.45-125.22,10.3-37.76,44.58-63.93,83.72-63.93,122.47,0,274.9,0,383.13,0-3.3,12.61-14.03,50.85-18.34,66.18Z"></path>
      <g>
        <polygon class="cls-1" points="2172.11 939.86 2029.26 939.86 2150.06 507.4 2292.9 507.4 2172.11 939.86"></polygon>
        <path class="cls-1" d="M2897.95,507.16c-39.14,0-73.42,26.17-83.72,63.93-13.1,48.02-29.61,108.28-33.45,125.22-5.99,26.44,6.8,46.2,32.92,52.81,9.28,2.35,19.16,3.14,28.78,3.19,58.2.28,116.41.13,174.61.15,7.86,0,15.75-.21,23.59.26,11.59.69,17.05,6.9,16.5,18.4-.17,3.62-.77,7.3-1.74,10.8-6.64,23.95-13.49,47.85-20.15,71.79-3.55,12.77-1.62,11.48-15.09,11.49-92.81.04-182.94.2-275.75-.03-7.36-.02-10.28,2.02-12.45,9.47-2.33,8.02-13.6,50.92-17.44,64.95,5.59.07,130.47-.06,191.03-.06,61.09,0,122.18.19,183.27-.08,48.46-.21,79.37-22.61,93.52-68.65,7.65-24.87,24.4-84.18,32.68-121.59h0c9.79-35.62-17.01-70.78-53.95-70.78h-1.1c-64.49-.59-128.99-.26-193.49-.3-21.36-.01-27.46-7.8-21.94-28.5,5.39-20.22,11.54-40.25,16.75-60.52,1.83-7.11,4.94-9.34,12.39-9.32,78.69.26,245.03.06,280.48.01,3.98,0,7.47-2.64,8.55-6.47,4.31-15.33,15.04-53.57,18.34-66.18-108.23,0-260.65,0-383.13,0Z"></path>
        <polygon class="cls-1" points="497.36 507.16 360.17 507.16 208.09 507.16 61.58 507.16 39.32 579.81 187.79 579.81 87.29 939.62 239.37 939.62 339.88 579.81 475.09 579.81 497.36 507.16"></polygon>
        <path class="cls-1" d="M926.78,507.16h-377.1l-120.8,432.46h152.08l100.5-359.81h111.48c12.51,0,21.63,11.83,18.46,23.93l-31.41,119.65h-116.43l-19.06,72.61h39.52l37.96,143.62h146.41l-37.96-143.62h8.58c40.23,0,75.39-27.13,85.61-66.04l44.18-168.32c7.23-27.55-13.55-54.48-42.03-54.48Z"></path>
        <g>
          <polygon class="cls-1" points="1952.65 507.4 1895.47 719.78 1811.4 507.4 1664.67 507.4 1835.26 939.6 1983.3 939.6 2098.13 507.4 1952.65 507.4"></polygon>
          <polygon class="cls-1" points="1548.93 940.67 1695.51 940.67 1741.39 766.19 1654.09 547.61 1548.93 940.67"></polygon>
        </g>
        <path class="cls-1" d="M2759.71,579.85l19.25-72.69h-433.05l-103.1,369.09c-8.89,31.83,15.04,63.37,48.09,63.37h372.54l19.01-74.19h-264.2c-10.22,0-17.62-9.75-14.87-19.59l70.86-253.7c2.03-7.26,8.64-12.28,16.18-12.28h269.27Z"></path>
        <path class="cls-3" d="M253.85,29.07c-39.14,0-73.42,26.17-83.72,63.93-13.1,48.02-29.61,108.28-33.45,125.22-5.99,26.44,6.8,46.2,32.92,52.81,9.28,2.35,19.16,3.14,28.78,3.19,58.2.28,116.41.13,174.61.15,7.86,0,15.75-.21,23.59.26,11.59.69,17.05,6.9,16.5,18.4-.17,3.62-.77,7.3-1.74,10.8-6.64,23.95-13.49,47.85-20.15,71.79-3.55,12.77-1.62,11.48-15.09,11.49-92.81.04-182.94.2-275.75-.03-7.36-.02-10.28,2.02-12.45,9.47-2.33,8.02-13.6,50.92-17.44,64.95,5.59.07,130.47-.06,191.03-.06,61.09,0,122.18.19,183.27-.08,48.46-.21,79.37-22.61,93.52-68.65,7.65-24.87,24.4-84.18,32.68-121.59h0c9.79-35.62-17.01-70.78-53.95-70.78h-1.1c-64.49-.59-128.99-.26-193.49-.3-21.36-.01-27.46-7.8-21.94-28.5,5.39-20.22,11.54-40.25,16.75-60.52,1.83-7.11,4.94-9.34,12.39-9.32,78.69.26,245.03.06,280.48.01,3.98,0,7.47-2.64,8.55-6.47,4.31-15.33,15.04-53.57,18.34-66.18-108.23,0-260.65,0-383.13,0Z"></path>
        <g>
          <polygon class="cls-3" points="689.75 29.07 568.95 461.53 721.04 461.53 841.83 29.07 689.75 29.07"></polygon>
          <path class="cls-3" d="M989.17,29.07l-42.37,151.68c-3.17,11.35-13.51,19.2-25.29,19.2h-100.03l-20.23,74.24h119.45l-52.33,187.34h152.08l120.8-432.46h-152.08Z"></path>
        </g>
        <g>
          <path class="cls-1" d="M1295.84,945.05v-166.68h39.25v-26.52h-38.27c-2.9,0-3.74-3.89-1.13-5.15.05-.02.1-.05.15-.07,3.54-1.72,6.91-3.76,10.03-6.1,15.19-11.31,25.01-29.26,25.01-49.49,0-3.52-.3-6.97-.87-10.32-1.95-11.49-7.1-21.91-14.54-30.32-11.51-13.06-28.47-21.32-47.39-21.32s-35.89,8.26-47.39,21.32c-7.44,8.41-12.58,18.82-14.54,30.32-.58,3.35-.87,6.81-.87,10.32,0,20.22,9.82,38.18,25.01,49.49,3.12,2.34,6.48,4.38,10.03,6.1.05.02.1.05.15.07,2.61,1.26,1.77,5.15-1.13,5.15h-38.27v26.52h39.25v166.68c-42.93-5.32-82.06-22.82-113.88-48.94l-50.39,53.31c45.14,38.39,101.9,63.5,164.27,69.28,9.14.86,18.4,1.3,27.76,1.3s18.62-.44,27.76-1.3c62.37-5.78,119.14-30.88,164.27-69.28l-50.39-53.31c-31.82,26.12-70.96,43.62-113.88,48.94ZM1243.9,691.03c0-4.53,1.28-8.76,3.51-12.37,4.24-6.9,11.92-11.49,20.67-11.49s16.44,4.6,20.67,11.49c2.22,3.61,3.51,7.83,3.51,12.37,0,9.25-5.33,17.26-13.11,21.21-3.31,1.7-7.08,2.65-11.07,2.65s-7.76-.95-11.07-2.65c-7.78-3.95-13.11-11.97-13.11-21.21Z"></path>
          <path class="cls-3" d="M1482.93,518.92l-50.39,53.31c36.58,39.77,58.91,92.85,58.91,151.16s-22.34,111.39-58.93,151.16l50.4,53.31c50.67-53.21,81.76-125.21,81.76-204.47s-31.09-151.26-81.76-204.47Z"></path>
          <path class="cls-3" d="M1044.71,723.39c0-58.31,22.33-111.39,58.91-151.16l-50.39-53.31c-50.67,53.21-81.76,125.21-81.76,204.47s31.09,151.26,81.76,204.47l50.4-53.31c-36.58-39.77-58.93-92.86-58.93-151.16Z"></path>
          <path class="cls-3" d="M1180.42,607.79l18.26,19.31c19.58-13.77,43.53-21.85,69.4-21.85s49.82,8.09,69.4,21.85l18.26-19.31c-24.42-18.07-54.78-28.76-87.66-28.76s-63.24,10.7-87.66,28.76Z"></path>
          <path class="cls-3" d="M1396.85,564.29c-35.29-27.85-80.06-44.49-128.77-44.49s-93.48,16.64-128.77,44.49l27.08,28.65c28.15-21.39,63.41-34.1,101.69-34.1s73.54,12.71,101.69,34.1l27.08-28.65Z"></path>
          <path class="cls-3" d="M1268.08,500.01c53.78,0,103.1,18.99,141.65,50.64l50.39-53.3c-51.75-44.02-118.79-70.57-192.03-70.57s-140.28,26.55-192.03,70.57l50.39,53.3c38.55-31.65,87.87-50.64,141.65-50.64Z"></path>
        </g>
        <g>
          <path class="cls-3" d="M1075.6,459.24c44.94-32.87,98.53-54.58,156.65-61.04l103.11-369.13h-142.49l-120.5,431.38h.82c.8-.42,1.61-.81,2.41-1.21Z"></path>
          <path class="cls-3" d="M1774.07,29.07h-385.53l-102.66,367.55c50.72,2.63,98.42,16.86,140.52,40.06l93.75-335.64,122.04-.11c9.79,0,16.91,9.29,14.35,18.74l-28.79,106.44c-2.01,7.41-8.73,12.57-16.41,12.58l-104.68.12-19.38,71.64h197.93c41.24,0,77.35-27.64,88.12-67.45l42.95-158.77c7.52-27.8-13.42-55.15-42.21-55.15Z"></path>
        </g>
      </g>
    </g>
  </g>
</svg>